<svg xmlns="http://www.w3.org/2000/svg" xmlns:xlink="http://www.w3.org/1999/xlink" width="421" height="311.542" viewBox="0 0 421 311.542">
  <defs>
    <clipPath id="clip-path">
      <rect width="290" height="226" fill="none"/>
    </clipPath>
  </defs>
  <g id="Group_828" data-name="Group 828" transform="translate(-245 -277.458)">
    <g id="Group_102" data-name="Group 102" transform="translate(-429.733 121.759)">
      <g id="Rectangle_145" data-name="Rectangle 145" transform="translate(754.733 202.241)" fill="#fff" stroke="#707070" stroke-width="1" opacity="0">
        <rect width="341" height="265" stroke="none"/>
        <rect x="0.5" y="0.5" width="340" height="264" fill="none"/>
      </g>
      <g id="Repeat_Grid_3" data-name="Repeat Grid 3" transform="translate(779.733 221.241)" clip-path="url(#clip-path)">
        <g transform="translate(-787 -226)">
          <circle id="Ellipse_7" data-name="Ellipse 7" cx="1.5" cy="1.5" r="1.5" transform="translate(787 226)" fill="#707070"/>
        </g>
        <g transform="translate(-764 -226)">
          <circle id="Ellipse_7-2" data-name="Ellipse 7" cx="1.5" cy="1.5" r="1.5" transform="translate(787 226)" fill="#707070"/>
        </g>
        <g transform="translate(-741 -226)">
          <circle id="Ellipse_7-3" data-name="Ellipse 7" cx="1.5" cy="1.5" r="1.5" transform="translate(787 226)" fill="#707070"/>
        </g>
        <g transform="translate(-718 -226)">
          <circle id="Ellipse_7-4" data-name="Ellipse 7" cx="1.5" cy="1.5" r="1.5" transform="translate(787 226)" fill="#707070"/>
        </g>
        <g transform="translate(-695 -226)">
          <circle id="Ellipse_7-5" data-name="Ellipse 7" cx="1.5" cy="1.5" r="1.5" transform="translate(787 226)" fill="#707070"/>
        </g>
        <g transform="translate(-672 -226)">
          <circle id="Ellipse_7-6" data-name="Ellipse 7" cx="1.5" cy="1.5" r="1.5" transform="translate(787 226)" fill="#707070"/>
        </g>
        <g transform="translate(-649 -226)">
          <circle id="Ellipse_7-7" data-name="Ellipse 7" cx="1.5" cy="1.5" r="1.5" transform="translate(787 226)" fill="#707070"/>
        </g>
        <g transform="translate(-626 -226)">
          <circle id="Ellipse_7-8" data-name="Ellipse 7" cx="1.5" cy="1.5" r="1.5" transform="translate(787 226)" fill="#707070"/>
        </g>
        <g transform="translate(-603 -226)">
          <circle id="Ellipse_7-9" data-name="Ellipse 7" cx="1.5" cy="1.5" r="1.5" transform="translate(787 226)" fill="#707070"/>
        </g>
        <g transform="translate(-580 -226)">
          <circle id="Ellipse_7-10" data-name="Ellipse 7" cx="1.5" cy="1.5" r="1.5" transform="translate(787 226)" fill="#707070"/>
        </g>
        <g transform="translate(-557 -226)">
          <circle id="Ellipse_7-11" data-name="Ellipse 7" cx="1.5" cy="1.5" r="1.5" transform="translate(787 226)" fill="#707070"/>
        </g>
        <g transform="translate(-534 -226)">
          <circle id="Ellipse_7-12" data-name="Ellipse 7" cx="1.5" cy="1.5" r="1.5" transform="translate(787 226)" fill="#707070"/>
        </g>
        <g transform="translate(-511 -226)">
          <circle id="Ellipse_7-13" data-name="Ellipse 7" cx="1.5" cy="1.5" r="1.5" transform="translate(787 226)" fill="#707070"/>
        </g>
        <g transform="translate(-787 -203)">
          <circle id="Ellipse_7-14" data-name="Ellipse 7" cx="1.5" cy="1.5" r="1.5" transform="translate(787 226)" fill="#707070"/>
        </g>
        <g transform="translate(-764 -203)">
          <circle id="Ellipse_7-15" data-name="Ellipse 7" cx="1.5" cy="1.5" r="1.5" transform="translate(787 226)" fill="#707070"/>
        </g>
        <g transform="translate(-741 -203)">
          <circle id="Ellipse_7-16" data-name="Ellipse 7" cx="1.5" cy="1.5" r="1.5" transform="translate(787 226)" fill="#707070"/>
        </g>
        <g transform="translate(-718 -203)">
          <circle id="Ellipse_7-17" data-name="Ellipse 7" cx="1.5" cy="1.5" r="1.5" transform="translate(787 226)" fill="#707070"/>
        </g>
        <g transform="translate(-695 -203)">
          <circle id="Ellipse_7-18" data-name="Ellipse 7" cx="1.5" cy="1.5" r="1.5" transform="translate(787 226)" fill="#707070"/>
        </g>
        <g transform="translate(-672 -203)">
          <circle id="Ellipse_7-19" data-name="Ellipse 7" cx="1.5" cy="1.5" r="1.5" transform="translate(787 226)" fill="#707070"/>
        </g>
        <g transform="translate(-649 -203)">
          <circle id="Ellipse_7-20" data-name="Ellipse 7" cx="1.5" cy="1.5" r="1.5" transform="translate(787 226)" fill="#707070"/>
        </g>
        <g transform="translate(-626 -203)">
          <circle id="Ellipse_7-21" data-name="Ellipse 7" cx="1.5" cy="1.5" r="1.5" transform="translate(787 226)" fill="#707070"/>
        </g>
        <g transform="translate(-603 -203)">
          <circle id="Ellipse_7-22" data-name="Ellipse 7" cx="1.5" cy="1.5" r="1.5" transform="translate(787 226)" fill="#707070"/>
        </g>
        <g transform="translate(-580 -203)">
          <circle id="Ellipse_7-23" data-name="Ellipse 7" cx="1.5" cy="1.5" r="1.5" transform="translate(787 226)" fill="#707070"/>
        </g>
        <g transform="translate(-557 -203)">
          <circle id="Ellipse_7-24" data-name="Ellipse 7" cx="1.5" cy="1.5" r="1.5" transform="translate(787 226)" fill="#707070"/>
        </g>
        <g transform="translate(-534 -203)">
          <circle id="Ellipse_7-25" data-name="Ellipse 7" cx="1.5" cy="1.5" r="1.5" transform="translate(787 226)" fill="#707070"/>
        </g>
        <g transform="translate(-511 -203)">
          <circle id="Ellipse_7-26" data-name="Ellipse 7" cx="1.5" cy="1.5" r="1.5" transform="translate(787 226)" fill="#707070"/>
        </g>
        <g transform="translate(-787 -180)">
          <circle id="Ellipse_7-27" data-name="Ellipse 7" cx="1.5" cy="1.5" r="1.5" transform="translate(787 226)" fill="#707070"/>
        </g>
        <g transform="translate(-764 -180)">
          <circle id="Ellipse_7-28" data-name="Ellipse 7" cx="1.5" cy="1.5" r="1.5" transform="translate(787 226)" fill="#707070"/>
        </g>
        <g transform="translate(-741 -180)">
          <circle id="Ellipse_7-29" data-name="Ellipse 7" cx="1.5" cy="1.5" r="1.5" transform="translate(787 226)" fill="#707070"/>
        </g>
        <g transform="translate(-718 -180)">
          <circle id="Ellipse_7-30" data-name="Ellipse 7" cx="1.5" cy="1.5" r="1.5" transform="translate(787 226)" fill="#707070"/>
        </g>
        <g transform="translate(-695 -180)">
          <circle id="Ellipse_7-31" data-name="Ellipse 7" cx="1.5" cy="1.5" r="1.5" transform="translate(787 226)" fill="#707070"/>
        </g>
        <g transform="translate(-672 -180)">
          <circle id="Ellipse_7-32" data-name="Ellipse 7" cx="1.5" cy="1.5" r="1.5" transform="translate(787 226)" fill="#707070"/>
        </g>
        <g transform="translate(-649 -180)">
          <circle id="Ellipse_7-33" data-name="Ellipse 7" cx="1.5" cy="1.5" r="1.5" transform="translate(787 226)" fill="#707070"/>
        </g>
        <g transform="translate(-626 -180)">
          <circle id="Ellipse_7-34" data-name="Ellipse 7" cx="1.5" cy="1.5" r="1.5" transform="translate(787 226)" fill="#707070"/>
        </g>
        <g transform="translate(-603 -180)">
          <circle id="Ellipse_7-35" data-name="Ellipse 7" cx="1.5" cy="1.5" r="1.5" transform="translate(787 226)" fill="#707070"/>
        </g>
        <g transform="translate(-580 -180)">
          <circle id="Ellipse_7-36" data-name="Ellipse 7" cx="1.5" cy="1.5" r="1.5" transform="translate(787 226)" fill="#707070"/>
        </g>
        <g transform="translate(-557 -180)">
          <circle id="Ellipse_7-37" data-name="Ellipse 7" cx="1.5" cy="1.5" r="1.5" transform="translate(787 226)" fill="#707070"/>
        </g>
        <g transform="translate(-534 -180)">
          <circle id="Ellipse_7-38" data-name="Ellipse 7" cx="1.5" cy="1.5" r="1.5" transform="translate(787 226)" fill="#707070"/>
        </g>
        <g transform="translate(-511 -180)">
          <circle id="Ellipse_7-39" data-name="Ellipse 7" cx="1.5" cy="1.5" r="1.5" transform="translate(787 226)" fill="#707070"/>
        </g>
        <g transform="translate(-787 -157)">
          <circle id="Ellipse_7-40" data-name="Ellipse 7" cx="1.5" cy="1.5" r="1.5" transform="translate(787 226)" fill="#707070"/>
        </g>
        <g transform="translate(-764 -157)">
          <circle id="Ellipse_7-41" data-name="Ellipse 7" cx="1.5" cy="1.5" r="1.5" transform="translate(787 226)" fill="#707070"/>
        </g>
        <g transform="translate(-741 -157)">
          <circle id="Ellipse_7-42" data-name="Ellipse 7" cx="1.5" cy="1.5" r="1.5" transform="translate(787 226)" fill="#707070"/>
        </g>
        <g transform="translate(-718 -157)">
          <circle id="Ellipse_7-43" data-name="Ellipse 7" cx="1.5" cy="1.5" r="1.5" transform="translate(787 226)" fill="#707070"/>
        </g>
        <g transform="translate(-695 -157)">
          <circle id="Ellipse_7-44" data-name="Ellipse 7" cx="1.5" cy="1.5" r="1.5" transform="translate(787 226)" fill="#707070"/>
        </g>
        <g transform="translate(-672 -157)">
          <circle id="Ellipse_7-45" data-name="Ellipse 7" cx="1.5" cy="1.5" r="1.5" transform="translate(787 226)" fill="#707070"/>
        </g>
        <g transform="translate(-649 -157)">
          <circle id="Ellipse_7-46" data-name="Ellipse 7" cx="1.5" cy="1.5" r="1.5" transform="translate(787 226)" fill="#707070"/>
        </g>
        <g transform="translate(-626 -157)">
          <circle id="Ellipse_7-47" data-name="Ellipse 7" cx="1.5" cy="1.5" r="1.5" transform="translate(787 226)" fill="#707070"/>
        </g>
        <g transform="translate(-603 -157)">
          <circle id="Ellipse_7-48" data-name="Ellipse 7" cx="1.5" cy="1.5" r="1.5" transform="translate(787 226)" fill="#707070"/>
        </g>
        <g transform="translate(-580 -157)">
          <circle id="Ellipse_7-49" data-name="Ellipse 7" cx="1.5" cy="1.5" r="1.5" transform="translate(787 226)" fill="#707070"/>
        </g>
        <g transform="translate(-557 -157)">
          <circle id="Ellipse_7-50" data-name="Ellipse 7" cx="1.5" cy="1.5" r="1.5" transform="translate(787 226)" fill="#707070"/>
        </g>
        <g transform="translate(-534 -157)">
          <circle id="Ellipse_7-51" data-name="Ellipse 7" cx="1.5" cy="1.5" r="1.5" transform="translate(787 226)" fill="#707070"/>
        </g>
        <g transform="translate(-511 -157)">
          <circle id="Ellipse_7-52" data-name="Ellipse 7" cx="1.5" cy="1.5" r="1.5" transform="translate(787 226)" fill="#707070"/>
        </g>
        <g transform="translate(-787 -134)">
          <circle id="Ellipse_7-53" data-name="Ellipse 7" cx="1.5" cy="1.5" r="1.5" transform="translate(787 226)" fill="#707070"/>
        </g>
        <g transform="translate(-764 -134)">
          <circle id="Ellipse_7-54" data-name="Ellipse 7" cx="1.5" cy="1.5" r="1.5" transform="translate(787 226)" fill="#707070"/>
        </g>
        <g transform="translate(-741 -134)">
          <circle id="Ellipse_7-55" data-name="Ellipse 7" cx="1.5" cy="1.5" r="1.5" transform="translate(787 226)" fill="#707070"/>
        </g>
        <g transform="translate(-718 -134)">
          <circle id="Ellipse_7-56" data-name="Ellipse 7" cx="1.5" cy="1.5" r="1.5" transform="translate(787 226)" fill="#707070"/>
        </g>
        <g transform="translate(-695 -134)">
          <circle id="Ellipse_7-57" data-name="Ellipse 7" cx="1.5" cy="1.5" r="1.5" transform="translate(787 226)" fill="#707070"/>
        </g>
        <g transform="translate(-672 -134)">
          <circle id="Ellipse_7-58" data-name="Ellipse 7" cx="1.5" cy="1.5" r="1.5" transform="translate(787 226)" fill="#707070"/>
        </g>
        <g transform="translate(-649 -134)">
          <circle id="Ellipse_7-59" data-name="Ellipse 7" cx="1.5" cy="1.5" r="1.5" transform="translate(787 226)" fill="#707070"/>
        </g>
        <g transform="translate(-626 -134)">
          <circle id="Ellipse_7-60" data-name="Ellipse 7" cx="1.5" cy="1.5" r="1.5" transform="translate(787 226)" fill="#707070"/>
        </g>
        <g transform="translate(-603 -134)">
          <circle id="Ellipse_7-61" data-name="Ellipse 7" cx="1.5" cy="1.5" r="1.5" transform="translate(787 226)" fill="#707070"/>
        </g>
        <g transform="translate(-580 -134)">
          <circle id="Ellipse_7-62" data-name="Ellipse 7" cx="1.5" cy="1.5" r="1.5" transform="translate(787 226)" fill="#707070"/>
        </g>
        <g transform="translate(-557 -134)">
          <circle id="Ellipse_7-63" data-name="Ellipse 7" cx="1.5" cy="1.5" r="1.5" transform="translate(787 226)" fill="#707070"/>
        </g>
        <g transform="translate(-534 -134)">
          <circle id="Ellipse_7-64" data-name="Ellipse 7" cx="1.5" cy="1.5" r="1.5" transform="translate(787 226)" fill="#707070"/>
        </g>
        <g transform="translate(-511 -134)">
          <circle id="Ellipse_7-65" data-name="Ellipse 7" cx="1.5" cy="1.5" r="1.5" transform="translate(787 226)" fill="#707070"/>
        </g>
        <g transform="translate(-787 -111)">
          <circle id="Ellipse_7-66" data-name="Ellipse 7" cx="1.5" cy="1.5" r="1.5" transform="translate(787 226)" fill="#707070"/>
        </g>
        <g transform="translate(-764 -111)">
          <circle id="Ellipse_7-67" data-name="Ellipse 7" cx="1.5" cy="1.5" r="1.5" transform="translate(787 226)" fill="#707070"/>
        </g>
        <g transform="translate(-741 -111)">
          <circle id="Ellipse_7-68" data-name="Ellipse 7" cx="1.5" cy="1.5" r="1.5" transform="translate(787 226)" fill="#707070"/>
        </g>
        <g transform="translate(-718 -111)">
          <circle id="Ellipse_7-69" data-name="Ellipse 7" cx="1.5" cy="1.5" r="1.5" transform="translate(787 226)" fill="#707070"/>
        </g>
        <g transform="translate(-695 -111)">
          <circle id="Ellipse_7-70" data-name="Ellipse 7" cx="1.5" cy="1.5" r="1.5" transform="translate(787 226)" fill="#707070"/>
        </g>
        <g transform="translate(-672 -111)">
          <circle id="Ellipse_7-71" data-name="Ellipse 7" cx="1.5" cy="1.5" r="1.5" transform="translate(787 226)" fill="#707070"/>
        </g>
        <g transform="translate(-649 -111)">
          <circle id="Ellipse_7-72" data-name="Ellipse 7" cx="1.5" cy="1.5" r="1.5" transform="translate(787 226)" fill="#707070"/>
        </g>
        <g transform="translate(-626 -111)">
          <circle id="Ellipse_7-73" data-name="Ellipse 7" cx="1.5" cy="1.5" r="1.5" transform="translate(787 226)" fill="#707070"/>
        </g>
        <g transform="translate(-603 -111)">
          <circle id="Ellipse_7-74" data-name="Ellipse 7" cx="1.5" cy="1.5" r="1.5" transform="translate(787 226)" fill="#707070"/>
        </g>
        <g transform="translate(-580 -111)">
          <circle id="Ellipse_7-75" data-name="Ellipse 7" cx="1.5" cy="1.5" r="1.5" transform="translate(787 226)" fill="#707070"/>
        </g>
        <g transform="translate(-557 -111)">
          <circle id="Ellipse_7-76" data-name="Ellipse 7" cx="1.5" cy="1.5" r="1.5" transform="translate(787 226)" fill="#707070"/>
        </g>
        <g transform="translate(-534 -111)">
          <circle id="Ellipse_7-77" data-name="Ellipse 7" cx="1.5" cy="1.5" r="1.5" transform="translate(787 226)" fill="#707070"/>
        </g>
        <g transform="translate(-511 -111)">
          <circle id="Ellipse_7-78" data-name="Ellipse 7" cx="1.5" cy="1.5" r="1.5" transform="translate(787 226)" fill="#707070"/>
        </g>
        <g transform="translate(-787 -88)">
          <circle id="Ellipse_7-79" data-name="Ellipse 7" cx="1.5" cy="1.5" r="1.5" transform="translate(787 226)" fill="#707070"/>
        </g>
        <g transform="translate(-764 -88)">
          <circle id="Ellipse_7-80" data-name="Ellipse 7" cx="1.5" cy="1.5" r="1.5" transform="translate(787 226)" fill="#707070"/>
        </g>
        <g transform="translate(-741 -88)">
          <circle id="Ellipse_7-81" data-name="Ellipse 7" cx="1.5" cy="1.5" r="1.5" transform="translate(787 226)" fill="#707070"/>
        </g>
        <g transform="translate(-718 -88)">
          <circle id="Ellipse_7-82" data-name="Ellipse 7" cx="1.5" cy="1.5" r="1.5" transform="translate(787 226)" fill="#707070"/>
        </g>
        <g transform="translate(-695 -88)">
          <circle id="Ellipse_7-83" data-name="Ellipse 7" cx="1.5" cy="1.5" r="1.5" transform="translate(787 226)" fill="#707070"/>
        </g>
        <g transform="translate(-672 -88)">
          <circle id="Ellipse_7-84" data-name="Ellipse 7" cx="1.5" cy="1.5" r="1.5" transform="translate(787 226)" fill="#707070"/>
        </g>
        <g transform="translate(-649 -88)">
          <circle id="Ellipse_7-85" data-name="Ellipse 7" cx="1.5" cy="1.5" r="1.5" transform="translate(787 226)" fill="#707070"/>
        </g>
        <g transform="translate(-626 -88)">
          <circle id="Ellipse_7-86" data-name="Ellipse 7" cx="1.5" cy="1.5" r="1.5" transform="translate(787 226)" fill="#707070"/>
        </g>
        <g transform="translate(-603 -88)">
          <circle id="Ellipse_7-87" data-name="Ellipse 7" cx="1.5" cy="1.5" r="1.5" transform="translate(787 226)" fill="#707070"/>
        </g>
        <g transform="translate(-580 -88)">
          <circle id="Ellipse_7-88" data-name="Ellipse 7" cx="1.5" cy="1.5" r="1.5" transform="translate(787 226)" fill="#707070"/>
        </g>
        <g transform="translate(-557 -88)">
          <circle id="Ellipse_7-89" data-name="Ellipse 7" cx="1.5" cy="1.5" r="1.5" transform="translate(787 226)" fill="#707070"/>
        </g>
        <g transform="translate(-534 -88)">
          <circle id="Ellipse_7-90" data-name="Ellipse 7" cx="1.5" cy="1.5" r="1.5" transform="translate(787 226)" fill="#707070"/>
        </g>
        <g transform="translate(-511 -88)">
          <circle id="Ellipse_7-91" data-name="Ellipse 7" cx="1.5" cy="1.5" r="1.5" transform="translate(787 226)" fill="#707070"/>
        </g>
        <g transform="translate(-787 -65)">
          <circle id="Ellipse_7-92" data-name="Ellipse 7" cx="1.5" cy="1.5" r="1.5" transform="translate(787 226)" fill="#707070"/>
        </g>
        <g transform="translate(-764 -65)">
          <circle id="Ellipse_7-93" data-name="Ellipse 7" cx="1.5" cy="1.5" r="1.5" transform="translate(787 226)" fill="#707070"/>
        </g>
        <g transform="translate(-741 -65)">
          <circle id="Ellipse_7-94" data-name="Ellipse 7" cx="1.5" cy="1.5" r="1.5" transform="translate(787 226)" fill="#707070"/>
        </g>
        <g transform="translate(-718 -65)">
          <circle id="Ellipse_7-95" data-name="Ellipse 7" cx="1.5" cy="1.5" r="1.5" transform="translate(787 226)" fill="#707070"/>
        </g>
        <g transform="translate(-695 -65)">
          <circle id="Ellipse_7-96" data-name="Ellipse 7" cx="1.5" cy="1.5" r="1.5" transform="translate(787 226)" fill="#707070"/>
        </g>
        <g transform="translate(-672 -65)">
          <circle id="Ellipse_7-97" data-name="Ellipse 7" cx="1.5" cy="1.5" r="1.5" transform="translate(787 226)" fill="#707070"/>
        </g>
        <g transform="translate(-649 -65)">
          <circle id="Ellipse_7-98" data-name="Ellipse 7" cx="1.5" cy="1.5" r="1.5" transform="translate(787 226)" fill="#707070"/>
        </g>
        <g transform="translate(-626 -65)">
          <circle id="Ellipse_7-99" data-name="Ellipse 7" cx="1.5" cy="1.5" r="1.5" transform="translate(787 226)" fill="#707070"/>
        </g>
        <g transform="translate(-603 -65)">
          <circle id="Ellipse_7-100" data-name="Ellipse 7" cx="1.5" cy="1.5" r="1.5" transform="translate(787 226)" fill="#707070"/>
        </g>
        <g transform="translate(-580 -65)">
          <circle id="Ellipse_7-101" data-name="Ellipse 7" cx="1.5" cy="1.5" r="1.5" transform="translate(787 226)" fill="#707070"/>
        </g>
        <g transform="translate(-557 -65)">
          <circle id="Ellipse_7-102" data-name="Ellipse 7" cx="1.5" cy="1.5" r="1.5" transform="translate(787 226)" fill="#707070"/>
        </g>
        <g transform="translate(-534 -65)">
          <circle id="Ellipse_7-103" data-name="Ellipse 7" cx="1.5" cy="1.5" r="1.5" transform="translate(787 226)" fill="#707070"/>
        </g>
        <g transform="translate(-511 -65)">
          <circle id="Ellipse_7-104" data-name="Ellipse 7" cx="1.5" cy="1.5" r="1.5" transform="translate(787 226)" fill="#707070"/>
        </g>
        <g transform="translate(-787 -42)">
          <circle id="Ellipse_7-105" data-name="Ellipse 7" cx="1.5" cy="1.5" r="1.5" transform="translate(787 226)" fill="#707070"/>
        </g>
        <g transform="translate(-764 -42)">
          <circle id="Ellipse_7-106" data-name="Ellipse 7" cx="1.5" cy="1.5" r="1.5" transform="translate(787 226)" fill="#707070"/>
        </g>
        <g transform="translate(-741 -42)">
          <circle id="Ellipse_7-107" data-name="Ellipse 7" cx="1.5" cy="1.5" r="1.5" transform="translate(787 226)" fill="#707070"/>
        </g>
        <g transform="translate(-718 -42)">
          <circle id="Ellipse_7-108" data-name="Ellipse 7" cx="1.5" cy="1.5" r="1.5" transform="translate(787 226)" fill="#707070"/>
        </g>
        <g transform="translate(-695 -42)">
          <circle id="Ellipse_7-109" data-name="Ellipse 7" cx="1.5" cy="1.5" r="1.5" transform="translate(787 226)" fill="#707070"/>
        </g>
        <g transform="translate(-672 -42)">
          <circle id="Ellipse_7-110" data-name="Ellipse 7" cx="1.5" cy="1.5" r="1.5" transform="translate(787 226)" fill="#707070"/>
        </g>
        <g transform="translate(-649 -42)">
          <circle id="Ellipse_7-111" data-name="Ellipse 7" cx="1.5" cy="1.5" r="1.5" transform="translate(787 226)" fill="#707070"/>
        </g>
        <g transform="translate(-626 -42)">
          <circle id="Ellipse_7-112" data-name="Ellipse 7" cx="1.5" cy="1.5" r="1.5" transform="translate(787 226)" fill="#707070"/>
        </g>
        <g transform="translate(-603 -42)">
          <circle id="Ellipse_7-113" data-name="Ellipse 7" cx="1.5" cy="1.5" r="1.5" transform="translate(787 226)" fill="#707070"/>
        </g>
        <g transform="translate(-580 -42)">
          <circle id="Ellipse_7-114" data-name="Ellipse 7" cx="1.5" cy="1.5" r="1.5" transform="translate(787 226)" fill="#707070"/>
        </g>
        <g transform="translate(-557 -42)">
          <circle id="Ellipse_7-115" data-name="Ellipse 7" cx="1.5" cy="1.5" r="1.5" transform="translate(787 226)" fill="#707070"/>
        </g>
        <g transform="translate(-534 -42)">
          <circle id="Ellipse_7-116" data-name="Ellipse 7" cx="1.5" cy="1.5" r="1.5" transform="translate(787 226)" fill="#707070"/>
        </g>
        <g transform="translate(-511 -42)">
          <circle id="Ellipse_7-117" data-name="Ellipse 7" cx="1.5" cy="1.5" r="1.5" transform="translate(787 226)" fill="#707070"/>
        </g>
        <g transform="translate(-787 -19)">
          <circle id="Ellipse_7-118" data-name="Ellipse 7" cx="1.5" cy="1.5" r="1.5" transform="translate(787 226)" fill="#707070"/>
        </g>
        <g transform="translate(-764 -19)">
          <circle id="Ellipse_7-119" data-name="Ellipse 7" cx="1.5" cy="1.5" r="1.5" transform="translate(787 226)" fill="#707070"/>
        </g>
        <g transform="translate(-741 -19)">
          <circle id="Ellipse_7-120" data-name="Ellipse 7" cx="1.5" cy="1.5" r="1.5" transform="translate(787 226)" fill="#707070"/>
        </g>
        <g transform="translate(-718 -19)">
          <circle id="Ellipse_7-121" data-name="Ellipse 7" cx="1.5" cy="1.5" r="1.5" transform="translate(787 226)" fill="#707070"/>
        </g>
        <g transform="translate(-695 -19)">
          <circle id="Ellipse_7-122" data-name="Ellipse 7" cx="1.5" cy="1.5" r="1.5" transform="translate(787 226)" fill="#707070"/>
        </g>
        <g transform="translate(-672 -19)">
          <circle id="Ellipse_7-123" data-name="Ellipse 7" cx="1.5" cy="1.5" r="1.5" transform="translate(787 226)" fill="#707070"/>
        </g>
        <g transform="translate(-649 -19)">
          <circle id="Ellipse_7-124" data-name="Ellipse 7" cx="1.5" cy="1.5" r="1.5" transform="translate(787 226)" fill="#707070"/>
        </g>
        <g transform="translate(-626 -19)">
          <circle id="Ellipse_7-125" data-name="Ellipse 7" cx="1.5" cy="1.5" r="1.5" transform="translate(787 226)" fill="#707070"/>
        </g>
        <g transform="translate(-603 -19)">
          <circle id="Ellipse_7-126" data-name="Ellipse 7" cx="1.5" cy="1.5" r="1.5" transform="translate(787 226)" fill="#707070"/>
        </g>
        <g transform="translate(-580 -19)">
          <circle id="Ellipse_7-127" data-name="Ellipse 7" cx="1.5" cy="1.5" r="1.5" transform="translate(787 226)" fill="#707070"/>
        </g>
        <g transform="translate(-557 -19)">
          <circle id="Ellipse_7-128" data-name="Ellipse 7" cx="1.5" cy="1.5" r="1.5" transform="translate(787 226)" fill="#707070"/>
        </g>
        <g transform="translate(-534 -19)">
          <circle id="Ellipse_7-129" data-name="Ellipse 7" cx="1.5" cy="1.5" r="1.5" transform="translate(787 226)" fill="#707070"/>
        </g>
        <g transform="translate(-511 -19)">
          <circle id="Ellipse_7-130" data-name="Ellipse 7" cx="1.5" cy="1.5" r="1.5" transform="translate(787 226)" fill="#707070"/>
        </g>
      </g>
    </g>
    <path id="Path_21" data-name="Path 21" d="M180.995-5.686c89.337-53.686,180.995,56.931,180.995,127.16s-81.034,127.16-180.995,127.16S0,191.7,0,121.474,91.658,48,180.995-5.686Z" transform="translate(245 297.366)" fill="#f6f6f6"/>
  </g>
</svg>
