<svg xmlns="http://www.w3.org/2000/svg" width="142.764" height="119.855" viewBox="0 0 142.764 119.855">
  <g id="Group_833" data-name="Group 833" transform="translate(-768.574 -1917.145)">
    <g id="Icon_ionic-ios-chatboxes" data-name="Icon ionic-ios-chatboxes" transform="translate(768.574 1917.145)">
      <path id="Path_22" data-name="Path 22" d="M54.01,11.981H17.9a6.218,6.218,0,0,0-6.209,6.209V43.337A6.2,6.2,0,0,0,17.9,49.53H38.56a1.781,1.781,0,0,1,1.239.522L50.066,59.52c.57.554,1.516.326,1.516-.473V50.8c0-.978.619-1.287,1.6-1.287h.163c3.422,0,6.861-2.754,6.861-6.193V18.191A6.183,6.183,0,0,0,54.01,11.981Z" transform="translate(7.578 7.967)"/>
      <path id="Path_23" data-name="Path 23" d="M23.975,19.33H52.886V8.688a5.314,5.314,0,0,0-5.313-5.313H8.688A5.314,5.314,0,0,0,3.375,8.688V35.611a5.314,5.314,0,0,0,5.313,5.313h9.958V24.643A5.338,5.338,0,0,1,23.975,19.33Z" transform="translate(-3.375 -3.375)"/>
    </g>
    <path id="Icon_ionic-md-person" data-name="Icon ionic-md-person" d="M47.48,47.48A21.49,21.49,0,1,0,25.99,25.99,21.552,21.552,0,0,0,47.48,47.48Zm0,10.745c-14.237,0-42.98,7.253-42.98,21.49V90.459H90.459V79.714C90.459,65.478,61.716,58.225,47.48,58.225Z" transform="translate(820.879 1946.541)"/>
  </g>
</svg>
