<svg xmlns="http://www.w3.org/2000/svg" width="943.004" height="307.16" viewBox="0 0 943.004 307.16">
  <g id="Group_829" data-name="Group 829" transform="translate(-528.404 -277.362)">
    <path id="Path_77" data-name="Path 77" d="M49.525,8.254c27.352,0,49.525-22.405,49.525,6.611S76.877,67.4,49.525,67.4,0,43.882,0,14.865,22.173,8.254,49.525,8.254Z" transform="matrix(-0.342, 0.94, -0.94, -0.342, 1274.838, 477.395)" fill="#f6f6f6"/>
    <path id="Path_78" data-name="Path 78" d="M27.919,0C84.633,0,74.468,18.964,74.468,59.574s54.91,57.609-1.8,57.609S18.451,112.231,18.451,71.62-28.8,0,27.919,0Z" transform="translate(1263.249 552.223) rotate(-74)" fill="#f6f6f6"/>
    <path id="Subtraction_25" data-name="Subtraction 25" d="M59.314,50.107c22.915,20.2,29.8,34.594,47.365,16.782S99.873,36.716,76.958,16.514,21.222-5.624,3.652,12.188,36.4,29.906,59.314,50.107Z" transform="translate(1284.388 443.685) rotate(165)" fill="#dadada"/>
    <path id="Subtraction_26" data-name="Subtraction 26" d="M90.013,65.084C124.788,32.5,104.812-20.48,131.476,8.25s20.088,78.434-14.688,111.018S32.205,154.976,5.542,126.246,55.237,97.668,90.013,65.084Z" transform="translate(528.404 409.831) rotate(-59)" fill="#f6f6f6"/>
    <path id="Path_81" data-name="Path 81" d="M-20.914,4.107c65.332,0,53.623,19.647,53.623,61.72s63.254,59.685-2.078,59.685-62.451-5.131-62.451-47.2S-86.246,4.107-20.914,4.107Z" transform="translate(647.274 530.718) rotate(-128)" fill="#716bf2"/>
    <path id="Path_82" data-name="Path 82" d="M50.549,0c37.835,0,64.525,21.827,29.713,51.7s26.08,68.927-11.756,68.927S0,90.955,0,54.356,12.714,0,50.549,0Z" transform="translate(694.484 313.889) rotate(-7)" fill="#f6f6f6"/>
    <path id="Path_83" data-name="Path 83" d="M28.235-1C45.29-5.621,66.269,35.4,43.6,43.609,23.124,51.03,0,45.71,0,36.036,0,15.713,10.671,3.752,28.235-1Z" transform="matrix(0.391, 0.921, -0.921, 0.391, 806.502, 422.508)" fill="#f6f6f6"/>
    <path id="Path_84" data-name="Path 84" d="M22.967.294C36.84-3.462,53.9,29.9,35.468,36.583,18.81,42.619,0,38.292,0,30.422,0,13.891,8.68,4.162,22.967.294Z" transform="matrix(0.391, -0.921, 0.921, 0.391, 659.526, 317.434)" fill="#dadada"/>
    <path id="Intersection_3" data-name="Intersection 3" d="M0,41.68a57.894,57.894,0,0,1,111.155,0A57.894,57.894,0,0,1,0,41.68Z" transform="matrix(1, -0.017, 0.017, 1, 796.259, 343.062)" fill="#716bf2"/>
    <path id="Path_85" data-name="Path 85" d="M68.033,11.339c37.574,0,68.033-30.779,68.033,9.081S105.606,92.593,68.033,92.593,0,60.28,0,20.421,30.459,11.339,68.033,11.339Z" transform="translate(1039.974 486.926) rotate(166)" fill="#dadada"/>
    <path id="Path_86" data-name="Path 86" d="M87.831-12.818c23.79-10.98,25.381-21.688,40.561-26.9,32.487-4.962,37.908,10,40.971,34.333,3.32,26.38,2.108,62.709-7.5,64.269C128.27,64.339,14.414,61.651,13.191,50,12.212,40.788,18.165,19.335,87.831-12.818Z" transform="matrix(1, -0.017, 0.017, 1, 729.53, 494.249)" fill="#f6f6f6"/>
    <path id="Path_87" data-name="Path 87" d="M53.987,0C94.4,0,122.9,23.312,85.721,55.214s27.853,73.615-12.555,73.615S0,97.141,0,58.053,13.579,0,53.987,0Z" transform="matrix(-0.719, 0.695, -0.695, -0.719, 1142.362, 432.517)" fill="#f6f6f6"/>
    <path id="Subtraction_27" data-name="Subtraction 27" d="M87.775,54.532c33.911-27.3,14.431-71.691,40.432-47.62S147.8,72.629,113.884,99.93,31.4,129.848,5.4,105.777,53.864,81.833,87.775,54.532Z" transform="matrix(1, 0.017, -0.017, 1, 1045.85, 438.235)" fill="#716bf2"/>
    <path id="Path_89" data-name="Path 89" d="M42.637,3.35C63.682-9.3,85.274,16.762,85.274,33.305S66.184,63.26,42.637,63.26,0,49.849,0,33.305,21.592,16,42.637,3.35Z" transform="translate(953.833 485.129) rotate(10)" fill="#f6f6f6"/>
    <path id="Path_90" data-name="Path 90" d="M24.865.318C39.884-3.748,58.358,32.372,38.4,39.6,20.364,46.14,0,41.455,0,32.936,0,15.038,9.4,4.506,24.865.318Z" transform="translate(962.988 344.207) rotate(55)" fill="#f6f6f6"/>
    <path id="Path_91" data-name="Path 91" d="M28.054.359C45-4.229,65.844,36.525,43.324,44.685,22.976,52.059,0,46.773,0,37.161,0,16.967,10.6,5.084,28.054.359Z" transform="translate(1327.817 434.561) rotate(16)" fill="#716bf2"/>
    <path id="Path_92" data-name="Path 92" d="M26.4.338C42.347-3.98,61.963,34.372,40.77,42.051,21.621,48.99,0,44.016,0,34.97,0,15.967,9.978,4.784,26.4.338Z" transform="matrix(0.719, 0.695, -0.695, 0.719, 1435.412, 504.469)" fill="#dadada"/>
  </g>
</svg>
