<svg xmlns="http://www.w3.org/2000/svg" width="115.354" height="112.914" viewBox="0 0 115.354 112.914">
  <path id="Icon_metro-tools" data-name="Icon metro-tools" d="M118.358,23.559A28.72,28.72,0,0,1,77.649,59.588L69.7,68.265l5.668,5.691,3.387-3.387a4.427,4.427,0,0,1,6.269,0l27.47,27.75a4.427,4.427,0,0,1,0,6.269L99.962,117.126a4.427,4.427,0,0,1-6.269,0l-27.47-27.75a4.427,4.427,0,0,1,0-6.269l3.094-3.094-5.4-5.415L25.925,116.1a8.862,8.862,0,0,1-12.538,0l-3.135-3.135a8.862,8.862,0,0,1,0-12.538L53.531,64.182,24.787,35.361l-9.078,0L5.2,18.464,13.658,10,30.934,20.569l.113,8.889L60.125,58.649l8.46-7.082a28.75,28.75,0,0,1,34.06-43.649L84.018,26.287,99.7,41.964l18.663-18.405Zm-97.709,81.29a4.435,4.435,0,1,0,0,6.274A4.435,4.435,0,0,0,20.649,104.849Z" transform="translate(-5.203 -5.785)"/>
</svg>
